# xmcd
#
# Track frame offsets:
#	150
#	16821
#	30572
#	47004
#	62898
#	79634
#	98001
#	114238
#	131119
#	147085
#	159896
#	175588
#	192951
#	209296
#
# Disc length: 2944 seconds
#
# Revision: 1
# Processed by: cddbd v1.5.2PL0 Copyright (c) Steve Scherf et al.
# Submitted via: audiograbber 1.83.01
#
DISCID=ab0b7e0e
DTITLE=Various Artist - CDX 500
DYEAR=2010
DGENRE=Country
TTITLE0=Sunny Sweeney - From A Table Away 
TTITLE1=Billy Currington - Pretty Good At Drinkin' Beer 
TTITLE2=James Wesley - Real 
TTITLE3=Martin Ramey - Twisted 
TTITLE4=Kacey Jones - It's Gonna Take One Helluva Man 
TTITLE5=Ellis Paul ft. Kristian Bush - Annalee 
TTITLE6=Tommy Steele - Forever 17 
TTITLE7=Veronica Ballestrini - Don't Say 
TTITLE8=Julie Ingram - I Love You
TTITLE9=Keith Compton - Inflatable Doll 
TTITLE10=Williams Riley - Makes Me Go (La La) 
TTITLE11=Vince Hatfield - Through That Glass
TTITLE12=Richie Fields - Wichita
TTITLE13=Nancy Hays - Dad
EXTD=
EXTT0=
EXTT1=
EXTT2=
EXTT3=
EXTT4=
EXTT5=
EXTT6=
EXTT7=
EXTT8=
EXTT9=
EXTT10=
EXTT11=
EXTT12=
EXTT13=
PLAYORDER=
